REM DIRINDEX 1\2,1\3\7,1\3\8,1\4\9,1\4\10,1\4\11,1\5\12,1\5\13,1\5\14,1\6\15,1\6\16,1\6\17
REM DIRNAME "folder01","folder02","folder03","folder04","folder05","folder06","folder07","folder08","folder09","folder10","folder11","folder12","folder13","folder14","folder15","folder16","folder17"
TITLE ""
FILE "2Q_t_0653-0670.mp3" MP3
  TRACK 01 AUDIO
    TITLE "0:"
    INDEX 01 00:00:00
  TRACK 02 AUDIO
    TITLE "7:cjc174_3070"
    INDEX 01 00:00:12
  TRACK 03 AUDIO
    TITLE "0:"
    INDEX 01 00:01:39
  TRACK 04 AUDIO
    TITLE "8:cjc174_3071"
    INDEX 01 00:02:23
  TRACK 05 AUDIO
    TITLE "0:"
    INDEX 01 00:04:08
  TRACK 06 AUDIO
    TITLE "7:cjc174_3072"
    INDEX 01 00:04:51
  TRACK 07 AUDIO
    TITLE "0:"
    INDEX 01 00:05:58
  TRACK 08 AUDIO
    TITLE "8:cjc174_3073"
    INDEX 01 00:06:31
  TRACK 09 AUDIO
    TITLE "0:"
    INDEX 01 00:07:63
  TRACK 10 AUDIO
    TITLE "7:cjc174_3074"
    INDEX 01 00:08:33
  TRACK 11 AUDIO
    TITLE "0:"
    INDEX 01 00:09:64
  TRACK 12 AUDIO
    TITLE "8:cjc174_3075"
    INDEX 01 00:10:36
  TRACK 13 AUDIO
    TITLE "0:"
    INDEX 01 00:11:41
  TRACK 14 AUDIO
    TITLE "7:cjc174_3076"
    INDEX 01 00:12:12
  TRACK 15 AUDIO
    TITLE "0:"
    INDEX 01 00:13:07
  TRACK 16 AUDIO
    TITLE "8:cjc174_3077"
    INDEX 01 00:13:56
  TRACK 17 AUDIO
    TITLE "0:"
    INDEX 01 00:18:02
  TRACK 18 AUDIO
    TITLE "7:cjc174_3078"
    INDEX 01 00:18:47
  TRACK 19 AUDIO
    TITLE "0:"
    INDEX 01 00:19:49
  TRACK 20 AUDIO
    TITLE "8:cjc174_3079"
    INDEX 01 00:20:25
  TRACK 21 AUDIO
    TITLE "0:"
    INDEX 01 00:21:52
  TRACK 22 AUDIO
    TITLE "7:cjc174_3080"
    INDEX 01 00:22:22
  TRACK 23 AUDIO
    TITLE "0:"
    INDEX 01 00:23:45
  TRACK 24 AUDIO
    TITLE "8:cjc174_3081"
    INDEX 01 00:24:21
  TRACK 25 AUDIO
    TITLE "0:"
    INDEX 01 00:25:46
  TRACK 26 AUDIO
    TITLE "7:cjc174_3082"
    INDEX 01 00:26:16
  TRACK 27 AUDIO
    TITLE "0:"
    INDEX 01 00:27:46
  TRACK 28 AUDIO
    TITLE "8:cjc174_3083"
    INDEX 01 00:28:18
  TRACK 29 AUDIO
    TITLE "0:"
    INDEX 01 00:30:29
  TRACK 30 AUDIO
    TITLE "7:cjc174_3084"
    INDEX 01 00:31:01
  TRACK 31 AUDIO
    TITLE "0:"
    INDEX 01 00:32:01
  TRACK 32 AUDIO
    TITLE "8:cjc174_3085"
    INDEX 01 00:32:48
  TRACK 33 AUDIO
    TITLE "0:"
    INDEX 01 00:36:73
  TRACK 34 AUDIO
    TITLE "7:cjc174_3086"
    INDEX 01 00:37:41
  TRACK 35 AUDIO
    TITLE "0:"
    INDEX 01 00:38:44
  TRACK 36 AUDIO
    TITLE "8:cjc174_3087"
    INDEX 01 00:39:12
  TRACK 37 AUDIO
    TITLE "0:"
    INDEX 01 00:41:21
  TRACK 38 AUDIO
    TITLE "7:cjc174_3088"
    INDEX 01 00:41:64
  TRACK 39 AUDIO
    TITLE "0:"
    INDEX 01 00:43:00
  TRACK 40 AUDIO
    TITLE "8:cjc174_3089"
    INDEX 01 00:43:49
  TRACK 41 AUDIO
    TITLE "0:"
    INDEX 01 00:45:62
  TRACK 42 AUDIO
    TITLE "7:cjc174_3090"
    INDEX 01 00:46:32
  TRACK 43 AUDIO
    TITLE "0:"
    INDEX 01 00:47:43
  TRACK 44 AUDIO
    TITLE "8:cjc174_3091"
    INDEX 01 00:48:27
  TRACK 45 AUDIO
    TITLE "0:"
    INDEX 01 00:51:06
  TRACK 46 AUDIO
    TITLE "7:cjc174_3092"
    INDEX 01 00:51:51
  TRACK 47 AUDIO
    TITLE "0:"
    INDEX 01 00:52:52
  TRACK 48 AUDIO
    TITLE "8:cjc174_3093"
    INDEX 01 00:53:22
  TRACK 49 AUDIO
    TITLE "0:"
    INDEX 01 00:56:05
  TRACK 50 AUDIO
    TITLE "7:cjc174_3094"
    INDEX 01 00:56:52
  TRACK 51 AUDIO
    TITLE "0:"
    INDEX 01 00:57:61
  TRACK 52 AUDIO
    TITLE "8:cjc174_3095"
    INDEX 01 00:58:31
  TRACK 53 AUDIO
    TITLE "0:"
    INDEX 01 01:00:44
  TRACK 54 AUDIO
    TITLE "7:cjc174_3096"
    INDEX 01 01:01:12
  TRACK 55 AUDIO
    TITLE "0:"
    INDEX 01 01:02:35
  TRACK 56 AUDIO
    TITLE "8:cjc174_3097"
    INDEX 01 01:03:05
  TRACK 57 AUDIO
    TITLE "0:"
    INDEX 01 01:05:12
  TRACK 58 AUDIO
    TITLE "7:cjc174_3098"
    INDEX 01 01:05:57
  TRACK 59 AUDIO
    TITLE "0:"
    INDEX 01 01:06:60
  TRACK 60 AUDIO
    TITLE "8:cjc174_3099"
    INDEX 01 01:07:32
  TRACK 61 AUDIO
    TITLE "0:"
    INDEX 01 01:09:39
  TRACK 62 AUDIO
    TITLE "7:cjc174_3100"
    INDEX 01 01:10:09
  TRACK 63 AUDIO
    TITLE "0:"
    INDEX 01 01:11:12
  TRACK 64 AUDIO
    TITLE "8:cjc174_3101"
    INDEX 01 01:11:61
  TRACK 65 AUDIO
    TITLE "0:"
    INDEX 01 01:15:30
  TRACK 66 AUDIO
    TITLE "7:cjc174_3102"
    INDEX 01 01:15:73
  TRACK 67 AUDIO
    TITLE "0:"
    INDEX 01 01:17:05
  TRACK 68 AUDIO
    TITLE "8:cjc174_3103"
    INDEX 01 01:17:58
  TRACK 69 AUDIO
    TITLE "0:"
    INDEX 01 01:21:60
  TRACK 70 AUDIO
    TITLE "7:cjc174_3104"
    INDEX 01 01:22:30
  TRACK 71 AUDIO
    TITLE "0:"
    INDEX 01 01:23:29
  TRACK 72 AUDIO
    TITLE "8:cjc174_3105"
    INDEX 01 01:24:05
  TRACK 73 AUDIO
    TITLE "0:"
    INDEX 01 01:26:06
